#!OML:ASF F:\VICON\USERDATA\INSTALL\Justin_Nancy\Justin_Nancy.ASF
:FULLY-SPECIFIED
:DEGREES
16
root 12.587 17.3986 -24.4559 -2.10386 5.65905 -2.75143
lowerback 7.9967 -0.406991 0.47438
upperback 0.138909 -0.312734 4.06417
thorax -4.32686 -0.121649 4.00355
lowerneck -14.0931 -4.16225 -9.84436
upperneck 20.3561 -4.61341 5.14994
head 9.07092 -2.38204 2.84017
rclavicle -1.40143e-014 6.36111e-015
rhumerus -35.9173 -17.6451 -74.3028
rradius 25.597
rwrist 13.4222
rhand -14.3757 10.5128
rfingers 7.12502
rthumb 11.7669 -19.1366
lclavicle -1.40143e-014 6.36111e-015
lhumerus -31.8859 6.83598 86.9448
lradius 27.1879
lwrist -8.99677
lhand -15.6418 22.3876
lfingers 7.12502
lthumb 10.5457 52.1031
rfemur -9.47913 3.98937 30.1593
rtibia 29.9348
rfoot -12.798 -5.67258
rtoes -3.50564
lfemur -23.2264 2.41545 -15.6551
ltibia 66.9149
lfoot -7.34614 0.0495207
ltoes -5.14108
17
root 12.5979 17.3779 -24.2402 -2.08956 5.38667 -2.99436
lowerback 7.96271 -0.331212 0.757017
upperback 0.512568 -0.198665 4.12318
thorax -3.92679 -0.0758986 3.88542
lowerneck -15.3128 -4.21543 -10.0286
upperneck 20.5928 -4.56187 5.33051
head 9.38324 -2.33785 2.92806
rclavicle -1.49089e-016 -2.94201e-014
rhumerus -34.2962 -16.6711 -75.1861
rradius 26.318
rwrist 12.3069
rhand -13.4368 9.22708
rfingers 7.12502
rthumb 12.6722 -20.3685
lclavicle -1.49089e-016 -2.94201e-014
lhumerus -31.659 6.53922 87.16
lradius 27.1708
lwrist -8.8639
lhand -16.1649 21.6226
lfingers 7.12502
lthumb 10.0411 51.363
rfemur -8.55423 4.14625 30.6826
rtibia 29.8725
rfoot -13.317 -6.72559
rtoes -3.00835
lfemur -24.5917 2.75355 -15.4005
ltibia 66.0451
lfoot -7.66275 1.07151
ltoes -7.92304
18
root 12.612 17.3601 -24.0173 -2.00069 5.14923 -3.22921
lowerback 7.94861 -0.349319 1.08348
upperback 1.1174 -0.212386 4.29975
thorax -3.29011 -0.0944863 3.87823
lowerneck -17.9136 -4.48279 -10.5723
upperneck 21.1965 -4.54292 5.43855
head 10.0978 -2.32965 3.03704
rclavicle 5.51627e-015 3.18055e-015
rhumerus -31.9494 -15.3017 -76.1241
rradius 27.0631
rwrist 11.1282
rhand -12.3005 7.34901
rfingers 7.12502
rthumb 13.7675 -22.1755
lclavicle 5.51627e-015 3.18055e-015
lhumerus -30.7179 6.84975 87.5119
lradius 26.8603
lwrist -8.49573
lhand -14.4843 24.2511
lfingers 7.12502
lthumb 11.6621 53.9065
rfemur -7.66347 4.26317 31.1689
rtibia 29.6611
rfoot -13.683 -7.5455
rtoes -1.924
lfemur -25.8903 3.07201 -15.1861
ltibia 65.0077
lfoot -8.06486 2.03538
ltoes -8.7298
19
root 12.6291 17.3405 -23.7917 -1.99728 4.86645 -3.43188
lowerback 7.96993 -0.139334 1.27712
upperback 0.595949 0.103014 4.18238
thorax -3.86215 0.0647122 3.6178
lowerneck -15.4929 -4.40632 -9.93134
upperneck 20.417 -4.7763 5.10774
head 9.36622 -2.44932 2.8011
rclavicle 5.11871e-015 -6.36111e-015
rhumerus -32.5811 -14.3284 -76.448
rradius 28.1123
rwrist 10.0577
rhand -12.546 7.20671
rfingers 7.12502
rthumb 13.5308 -22.3337
lclavicle 5.11871e-015 -6.36111e-015
lhumerus -32.3789 5.78113 87.5245
lradius 26.8075
lwrist -7.56245
lhand -11.5212 28.1803
lfingers 7.12502
lthumb 14.5183 57.6523
rfemur -6.55106 4.53016 31.6098
rtibia 29.2482
rfoot -14.1031 -8.10559
rtoes -1.06926
lfemur -26.8965 3.30269 -15.0049
ltibia 63.7892
lfoot -8.80363 2.92344
ltoes -8.55003
20
root 12.6399 17.315 -23.5786 -1.9766 4.80345 -3.79861
lowerback 8.03149 -0.0420831 1.71844
upperback 0.503741 0.277944 4.15286
thorax -3.9999 0.144569 3.31893
lowerneck -14.8083 -4.46075 -9.49307
upperneck 19.8649 -4.9524 4.82895
head 9.04343 -2.53128 2.6138
rclavicle -1.51573e-014 1.98785e-014
rhumerus -32.2928 -13.2972 -77.0407
rradius 29.1126
rwrist 9.5431
rhand -14.3767 8.82719
rfingers 7.12502
rthumb 11.7659 -20.8223
lclavicle -1.51573e-014 1.98785e-014
lhumerus -32.9253 5.11562 87.6121
lradius 26.6343
lwrist -7.18247
lhand -9.97029 29.8875
lfingers 7.12502
lthumb 16.0123 59.2457
rfemur -5.47546 4.93071 32.2921
rtibia 28.7096
rfoot -14.3686 -9.03565
rtoes -0.679118
lfemur -27.9787 3.29743 -14.5949
ltibia 62.3895
lfoot -9.54197 3.67187
ltoes -8.31172
21
root 12.6565 17.3007 -23.3526 -1.90838 4.60444 -4.02922
lowerback 8.0354 0.0277521 2.07531
upperback 0.508641 0.402865 4.14358
thorax -4.00027 0.200068 3.09325
lowerneck -14.94 -4.46357 -9.52154
upperneck 19.903 -4.96254 4.94104
head 9.08489 -2.52484 2.65439
rclavicle -1.06847e-014 -3.97569e-014
rhumerus -31.8042 -11.9716 -77.6432
rradius 30.9113
rwrist 7.68832
rhand -13.8845 7.70023
rfingers 7.12502
rthumb 12.2405 -21.9216
lclavicle -1.06847e-014 -3.97569e-014
lhumerus -33.3933 4.72886 87.7199
lradius 26.6758
lwrist -6.98923
lhand -10.0171 29.6152
lfingers 7.12502
lthumb 15.9671 58.9771
rfemur -4.41061 5.03924 32.8034
rtibia 28.1176
rfoot -14.383 -9.94391
rtoes -2.25035
lfemur -28.8894 3.44658 -14.3493
ltibia 60.7037
lfoot -10.1342 4.44615
ltoes -7.34656
22
root 12.6751 17.2807 -23.1256 -1.85156 4.21501 -4.25226
lowerback 8.05032 0.192883 2.37585
upperback 0.495674 0.651189 4.13972
thorax -4.02856 0.317786 2.89137
lowerneck -15.1164 -4.41029 -9.46081
upperneck 20.1568 -4.90372 4.98772
head 9.19939 -2.4877 2.66784
rclavicle -1.1778e-014 9.54166e-015
rhumerus -31.4163 -10.9576 -77.973
rradius 32.0325
rwrist 7.0368
rhand -14.5148 9.1515
rfingers 7.12502
rthumb 11.6326 -20.5056
lclavicle -1.1778e-014 9.54166e-015
lhumerus -33.9272 4.31666 87.8394
lradius 26.6128
lwrist -6.49299
lhand -10.7628 28.6892
lfingers 7.12502
lthumb 15.249 58.1072
rfemur -3.31024 5.16204 33.2765
rtibia 27.5769
rfoot -14.6852 -10.4951
rtoes -3.13512
lfemur -29.7227 3.81538 -14.1083
ltibia 58.7902
lfoot -10.5963 5.26315
ltoes -8.52391
23
root 12.6882 17.2516 -22.9079 -1.68403 4.34904 -4.401
lowerback 8.02404 0.203141 2.54461
upperback 0.382036 0.684933 4.14417
thorax -4.13157 0.331349 2.79785
lowerneck -14.8641 -4.44655 -9.40117
upperneck 19.9901 -4.98894 4.98721
head 9.1003 -2.525 2.64896
rclavicle -2.25124e-014 -1.27222e-014
rhumerus -30.975 -10.0777 -78.2211
rradius 33.1925
rwrist 6.44956
rhand -14.7512 9.13102
rfingers 7.12502
rthumb 11.4048 -20.5388
lclavicle -2.25124e-014 -1.27222e-014
lhumerus -34.3595 4.30713 87.8374
lradius 26.2279
lwrist -6.57252
lhand -11.4646 26.9453
lfingers 7.12502
lthumb 14.5729 56.4134
rfemur -2.36212 5.15891 33.6532
rtibia 27.0508
rfoot -15.2385 -10.9805
rtoes -2.381
lfemur -30.8275 3.77548 -13.9944
ltibia 56.732
lfoot -10.8084 5.92282
ltoes -10.7263
24
root 12.7027 17.2303 -22.6873 -1.53882 4.57608 -4.3493
lowerback 7.97875 0.0885806 2.61545
upperback 0.55155 0.526819 4.12354
thorax -3.9238 0.25196 2.75282
lowerneck -15.7215 -4.48079 -9.76204
upperneck 20.2003 -4.93454 5.2884
head 9.34475 -2.48425 2.81039
rclavicle -1.42628e-014 -1.74931e-014
rhumerus -29.8565 -8.94756 -78.6302
rradius 34.2283
rwrist 5.88864
rhand -14.6753 7.33749
rfingers 7.12502
rthumb 11.4779 -22.3283
lclavicle -1.42628e-014 -1.74931e-014
lhumerus -34.1823 4.72717 87.7457
lradius 25.8537
lwrist -6.79152
lhand -11.4282 25.6281
lfingers 7.12502
lthumb 14.608 55.0937
rfemur -1.37764 5.0477 33.7999
rtibia 26.5298
rfoot -15.7044 -11.5792
rtoes -2.67963
lfemur -31.673 3.30058 -14.0038
ltibia 54.6211
lfoot -11.1947 6.34088
ltoes -9.07843
25
root 12.7213 17.211 -22.4624 -1.34104 4.35852 -4.48362
lowerback 7.86713 0.0264792 2.90568
upperback 1.01981 0.443364 4.24179
thorax -3.37083 0.209008 2.71798
lowerneck -17.9799 -4.46156 -10.3261
upperneck 20.9426 -4.5892 5.52284
head 10.0175 -2.31658 3.01632
rclavicle 1.03368e-014 7.15625e-015
rhumerus -28.0711 -7.63691 -78.9809
rradius 35.1853
rwrist 5.08479
rhand -14.6804 6.04889
rfingers 7.12502
rthumb 11.473 -23.6172
lclavicle 1.03368e-014 7.15625e-015
lhumerus -33.3133 5.6222 87.7226
lradius 25.43
lwrist -7.15865
lhand -11.5051 25.4302
lfingers 7.12502
lthumb 14.5339 54.9011
rfemur -0.403874 5.16017 34.0916
rtibia 25.9087
rfoot -16.057 -11.9105
rtoes -3.16057
lfemur -32.1995 3.02277 -13.6695
ltibia 52.4445
lfoot -11.8861 6.49686
ltoes -4.3051
26
root 12.7401 17.1961 -22.2406 -1.09758 4.15367 -4.56273
lowerback 7.861 0.297737 3.13079
upperback 0.455746 0.844926 4.01871
thorax -3.95781 0.399374 2.31794
lowerneck -16.007 -4.42262 -9.61751
upperneck 20.4002 -4.84283 5.18454
head 9.45266 -2.43918 2.76086
rclavicle -2.13694e-015 -3.65764e-014
rhumerus -28.7823 -7.64902 -78.9541
rradius 36.3828
rwrist 4.79451
rhand -14.8383 6.42114
rfingers 7.12502
rthumb 11.3207 -23.2533
lclavicle -2.13694e-015 -3.65764e-014
lhumerus -34.4963 4.96087 87.4679
lradius 25.1621
lwrist -7.36775
lhand -11.5628 26.0272
lfingers 7.12502
lthumb 14.4783 55.5021
rfemur 0.539885 5.28526 34.2809
rtibia 25.2322
rfoot -16.374 -12.046
rtoes -3.17822
lfemur -32.4683 2.68628 -13.3406
ltibia 50.0442
lfoot -12.7397 6.49581
ltoes -0.177607
27
root 12.7603 17.1928 -22.0086 -0.772133 4.15024 -4.38727
lowerback 7.67669 0.417002 3.0782
upperback 0.230165 0.995128 3.90128
thorax -4.09051 0.47244 2.20955
lowerneck -15.4326 -4.56865 -9.51552
upperneck 20.1283 -5.11062 5.13319
head 9.26967 -2.56746 2.69533
rclavicle -8.79622e-015 -3.57812e-014
rhumerus -28.6154 -7.35966 -78.8488
rradius 37.4619
rwrist 4.58911
rhand -15.4055 8.05446
rfingers 7.12502
rthumb 10.7736 -21.6493
lclavicle -8.79622e-015 -3.57812e-014
lhumerus -35.0932 5.00656 87.3592
lradius 24.9623
lwrist -7.87334
lhand -11.4065 26.657
lfingers 7.12502
lthumb 14.6289 56.121
rfemur 1.49594 5.42001 34.1975
rtibia 24.5202
rfoot -16.6708 -12.3078
rtoes -3.65014
lfemur -33.0386 2.06773 -13.34
ltibia 47.1668
lfoot -12.3664 6.9964
ltoes -1.30071
28
root 12.7858 17.185 -21.7748 -0.360525 4.04287 -4.21012
lowerback 7.38711 0.482706 3.03896
upperback 0.0338995 1.06961 3.83246
thorax -4.13257 0.508779 2.15348
lowerneck -15.3639 -4.48233 -9.68666
upperneck 20.351 -5.02716 5.41762
head 9.33952 -2.51435 2.83693
rclavicle 6.5102e-015 -1.59028e-014
rhumerus -28.5423 -6.83852 -78.7578
rradius 38.6624
rwrist 4.31027
rhand -16.2 9.5565
rfingers 7.12502
rthumb 10.0072 -20.1856
lclavicle 6.5102e-015 -1.59028e-014
lhumerus -35.6421 5.21206 87.2629
lradius 24.8337
lwrist -8.24453
lhand -11.2972 26.8781
lfingers 7.12502
lthumb 14.7342 56.3345
rfemur 2.37504 5.42671 34.0032
rtibia 23.82
rfoot -16.9744 -12.25
rtoes -4.17684
lfemur -33.6235 1.39533 -13.3331
ltibia 43.9681
lfoot -10.9992 7.69242
ltoes -4.06042
29
root 12.8096 17.1662 -21.5485 -0.0425957 3.76304 -4.19026
lowerback 7.23153 0.580378 3.16544
upperback -0.180118 1.20986 3.77328
thorax -4.26635 0.573491 2.00708
lowerneck -14.9244 -4.34669 -9.76248
upperneck 20.381 -4.89532 5.55062
head 9.26273 -2.45171 2.91961
rclavicle 9.74045e-015 1.59028e-014
rhumerus -28.5894 -6.28481 -78.7097
rradius 39.7972
rwrist 3.69014
rhand -16.8206 10.847
rfingers 7.12502
rthumb 9.40848 -18.923
lclavicle 9.74045e-015 1.59028e-014
lhumerus -36.1988 5.62375 86.9723
lradius 24.5968
lwrist -8.5718
lhand -11.2958 26.5575
lfingers 7.12502
lthumb 14.7355 56.0138
rfemur 3.24213 5.56227 33.9581
rtibia 23.1654
rfoot -17.1626 -11.9903
rtoes -3.49917
lfemur -33.983 0.679764 -13.0221
ltibia 40.5175
lfoot -8.99343 8.39548
ltoes -8.69637
30
root 12.8327 17.1452 -21.3167 0.160267 3.47551 -4.26856
lowerback 7.09079 0.716883 3.35976
upperback -0.255527 1.40327 3.76548
thorax -4.26346 0.66477 1.87055
lowerneck -14.7729 -4.37751 -9.76803
upperneck 20.3869 -4.93122 5.45992
head 9.2381 -2.48086 2.88608
rclavicle -2.18166e-014 -7.95139e-016
rhumerus -28.3271 -6.03106 -78.6157
rradius 40.9115
rwrist 2.72878
rhand -16.6005 11.2213
rfingers 7.12502
rthumb 9.62077 -18.539
lclavicle -2.18166e-014 -7.95139e-016
lhumerus -36.371 6.53441 86.5005
lradius 24.041
lwrist -9.28993
lhand -10.8855 26.4523
lfingers 7.12502
lthumb 15.1308 55.8792
rfemur 4.11787 5.87278 34.0821
rtibia 22.7134
rfoot -17.128 -11.9621
rtoes -4.13742
lfemur -34.1279 -0.0536701 -12.5138
ltibia 37.0215
lfoot -7.11958 8.96352
ltoes -7.45201
